Coordinates
version=1
nRows=16
nColumns=36
inDegrees=yes

Units are S.I. units (second, meters, Newtons, ...)
If the header above contains a line with 'inDegrees', this indicates whether rotational values are in degrees (yes) or radians (no).

endheader
time	pelvis_tilt	pelvis_list	pelvis_rotation	pelvis_tx	pelvis_ty	pelvis_tz	hip_flexion_r	hip_adduction_r	hip_rotation_r	knee_angle_r	knee_angle_r_beta	ankle_angle_r	subtalar_angle_r	mtp_angle_r	hip_flexion_l	hip_adduction_l	hip_rotation_l	knee_angle_l	knee_angle_l_beta	ankle_angle_l	subtalar_angle_l	mtp_angle_l	lumbar_extension	lumbar_bending	lumbar_rotation	arm_flex_r	arm_add_r	arm_rot_r	elbow_flex_r	pro_sup_r	arm_flex_l	arm_add_l	arm_rot_l	elbow_flex_l	pro_sup_l
      0.00000000	     -0.79750321	      6.46863469	      0.96399080	      0.51990688	      0.89597857	     -0.02794276	     25.95003867	     -0.90152827	      1.52559541	     49.28288702	      0.86014864	     16.56851627	     -9.25797890	     -6.46820523	     46.75133048	      6.35740554	     -3.01560344	     25.78933444	      0.45010880	     -1.21687683	     -8.10137375	     -6.46820523	    -27.73818551	     -5.07814079	     -6.72811872	     63.80133886	     13.10686481	     60.89569911	    110.34881537	    103.39289730	     48.62113313	      9.19003714	     12.60387983	    115.34248001	     93.45990157
      0.01666670	     -2.45001940	      6.09683243	      0.16562112	      0.52251943	      0.88904547	     -0.02792546	     29.70979232	     -0.30090490	      1.94840701	     52.44020662	      0.91525427	     24.74410828	     -2.71375028	     -6.44763689	     48.20052538	      4.75740347	     -1.69085407	     22.73635498	      0.39682425	     -0.24397151	     -5.79514873	     -6.44763689	    -27.65954276	     -4.80241031	     -6.40718135	     67.76940253	     13.87453834	     66.15759566	    110.66977151	    105.19654220	     49.05333737	     11.31090351	     29.95869864	    123.19884522	     96.32860162
      0.03333330	     -3.72101287	      5.23412591	     -0.57126476	      0.51752490	      0.88169281	     -0.03232077	     32.01177408	      0.94767800	      1.04844541	     54.72032126	      0.95504977	     27.79858614	      0.29145413	     -6.50178876	     48.32741187	      3.35308133	     -0.40401816	     19.00674389	      0.33173026	     -2.73176815	     -7.68360578	     -6.50178876	    -26.41209067	     -3.38030153	     -4.73069968	     69.70697089	     13.75895553	     69.95970283	    109.66522778	    104.97013460	     51.67409916	     13.44179299	     46.94520544	    123.74813175	     97.51527343
      0.05000000	     -4.44397175	      4.67157823	     -0.28687813	      0.51763303	      0.87199164	     -0.03324614	     34.08280912	      0.91291171	     -0.17124173	     57.08890127	      0.99638929	     30.81123698	      2.76287076	     -6.57301656	     49.64542338	      2.93460700	      0.36564183	     18.91258590	      0.33008689	     -2.31420547	     -7.16862587	     -6.57301656	    -26.52956243	     -2.15956610	     -4.49487279	     71.19440056	     13.17158945	     71.01757739	    108.70464188	    102.43011981	     53.24003619	     11.35967766	     40.84158595	    122.02586466	     94.69800714
      0.06666670	     -4.61903665	      4.61096512	      0.02005448	      0.52153858	      0.86842909	     -0.03113297	     34.83424312	      0.42035387	     -0.80453384	     58.52776962	      1.02150228	     32.30612141	      5.51150173	     -6.58976497	     50.42249118	      2.86435080	      0.07354375	     19.41948969	      0.33893403	     -1.99303188	     -7.82296978	     -6.58976497	    -26.79587376	     -1.53454734	     -4.72857384	     71.91516129	     13.41206813	     74.35915337	    106.95786083	    102.39390444	     54.12622431	     12.61360285	     49.60837476	    122.54227078	     94.85616589
      0.08333330	     -4.74368685	      4.53482080	      0.41550380	      0.51818275	      0.86352999	     -0.02887896	     35.52494125	      0.07348522	     -1.13953325	     59.16954395	      1.03270336	     33.30440577	      6.56130774	     -6.79976302	     51.30602955	      2.81301166	     -0.43479833	     19.35241160	      0.33776330	     -1.90987721	     -7.26767082	     -6.79976302	    -27.33172465	     -1.29716095	     -4.39010192	     72.85269271	     13.06340863	     76.05412515	    106.20573112	     97.10966462	     54.66827346	     13.53388466	     58.09853525	    122.26229886	     91.32756163
      0.10000000	     -4.81805133	      4.24265840	      0.57856991	      0.51745627	      0.85571287	     -0.03338333	     36.33505116	     -0.18189666	     -1.53840107	     60.44867092	      1.05502834	     33.78794566	      7.78153038	     -6.82632935	     52.09677055	      2.64836426	     -0.34161216	     19.05301810	      0.33253790	     -1.71132119	     -7.44871951	     -6.82632935	    -27.95747025	     -0.65420686	     -4.22991685	     73.16420734	     12.04874996	     76.60526480	    106.44184602	     95.52487392	     55.82972136	     14.08693929	     63.28445492	    121.34754423	     90.40679183
      0.11666670	     -5.38429500	      3.90832630	      0.55667260	      0.50995192	      0.84545769	     -0.03367449	     38.76709135	     -0.21983334	     -1.75125718	     62.62097258	      1.09294215	     34.30210551	      8.31160798	     -6.85655606	     53.78254187	      2.19250384	     -0.52333450	     19.19297763	      0.33498065	     -1.88291190	     -7.68211454	     -6.85655606	    -28.40478803	      0.09369167	     -3.73986146	     74.24696419	     11.53527811	     76.07438868	    105.54836116	     93.75915327	     57.66665480	     14.42934112	     67.37548239	    120.75984683	     89.10682843
      0.13333330	     -5.36446043	      3.78922272	      0.70211928	      0.50928147	      0.83910967	     -0.03443615	     40.72846783	     -0.71994750	     -2.31508495	     65.56276658	      1.14428614	     34.52570515	      9.83253293	     -6.87047488	     54.61582562	      2.04391667	     -0.82664972	     19.15299583	      0.33428284	     -2.05390168	     -7.60592211	     -6.87047488	    -29.35126671	      0.58894647	     -3.55490504	     75.16720187	     10.84582210	     74.70191051	    105.22542613	     93.25565096	     59.25606235	     14.06747368	     68.30836518	    120.27969395	     88.69666009
      0.15000000	     -5.82259981	      3.75282000	      0.84018013	      0.50502795	      0.83336170	     -0.03742304	     42.79989616	     -1.17008811	     -2.55074572	     67.46903743	      1.17755685	     34.94837815	     10.24022091	     -6.93363237	     55.94167053	      1.98438965	     -1.08949105	     19.58350236	      0.34179660	     -2.61718884	     -8.12927811	     -6.93363237	    -30.01274570	      0.87624442	     -3.16986474	     75.99308576	     10.30927220	     73.22829038	    105.68986387	     91.18210655	     60.91544257	     14.57051140	     69.85265965	    120.21129054	     86.40022400
      0.16666670	     -6.13526760	      3.82292022	      0.97876886	      0.50561932	      0.82349758	     -0.03675198	     44.40758437	     -1.49790066	     -2.66778144	     69.46709803	      1.21242958	     35.60191086	     11.53641317	     -6.94986310	     57.15275414	      1.85098903	     -1.27029496	     19.66046666	      0.34313988	     -2.62409888	     -8.29297658	     -6.94986310	    -30.57071169	      1.04877358	     -3.15795777	     76.73917893	      9.97011696	     72.34542089	    105.50795144	     89.23909180	     62.43598398	     13.97278103	     69.63708753	    120.50235424	     84.60991351
      0.18333330	     -6.47843593	      3.99838642	      1.17760331	      0.50885549	      0.81800278	     -0.03886212	     45.61288157	     -1.94991922	     -2.63933717	     70.96711227	      1.23860977	     36.49949764	     11.77112468	     -6.96567186	     58.00865145	      2.11823403	     -0.87387628	     19.67741686	      0.34343571	     -3.06021019	     -8.90662621	     -6.96567186	    -30.68960719	      1.18367770	     -3.49891776	     77.20038225	     10.17072379	     72.49722289	    105.11138277	     89.03251233	     63.08991016	     14.10988204	     70.07248020	    120.14408724	     83.85206238
      0.20000000	     -6.61771851	      4.03546457	      1.40322473	      0.50919806	      0.81366443	     -0.03445981	     46.12637605	     -1.72055455	     -2.33479543	     72.00574694	      1.25673736	     36.90316187	     12.06871077	     -7.07072898	     58.21352057	      1.97694579	     -1.05425094	     19.18365690	      0.33481798	     -3.29016664	     -8.37723929	     -7.07072898	    -31.11800311	      1.27918778	     -3.43462137	     77.19548778	     10.28051780	     72.54099896	    105.10530653	     87.87498220	     63.40196168	     13.64113130	     69.62432817	    120.75941766	     79.31488878
      0.21666670	     -6.74673361	      4.00302474	      1.58563727	      0.51279872	      0.81203888	     -0.03656511	     46.28313192	     -1.53458424	     -1.95671548	     72.46796271	      1.26480455	     37.60506391	     11.52067439	     -7.07657994	     58.10228092	      2.05968559	     -0.75312709	     18.45817417	      0.32215591	     -3.50642079	     -8.28329919	     -7.07657994	    -31.59794754	      1.45995222	     -3.68009666	     76.86897346	     10.36511394	     73.46571999	    105.20928271	     87.94889164	     63.67632440	     13.98940723	     70.56967101	    120.58147374	     79.29661470
      0.23333330	     -6.74366710	      4.20857441	      1.45498583	      0.51176956	      0.80705389	     -0.03737799	     46.35648728	     -1.41796372	     -1.43187815	     72.96726731	      1.27351906	     37.91699817	     11.71611738	     -7.09134140	     57.89851256	      2.16182070	     -1.02899112	     17.63969189	      0.30787070	     -3.90419673	     -7.64636035	     -7.09134140	    -32.34107734	      1.22311861	     -4.04363199	     76.79587337	     10.56164724	     74.16719264	    105.61680176	     87.35399201	     63.81734055	     13.67819268	     70.97688896	    120.68791290	     78.80476980
      0.25000000	     -6.25466899	      4.24767140	      1.27595105	      0.51109519	      0.80471422	     -0.03751802	     46.21209077	     -1.27943499	     -1.22167239	     73.50877901	      1.28297022	     38.50556616	     11.18942834	     -7.12894566	     57.45823769	      2.09424458	     -1.22661769	     17.13110040	      0.29899411	     -4.14968214	     -7.23376207	     -7.12894566	    -34.05602061	      1.23176345	     -4.57285782	     77.25445196	     10.51180929	     73.47367819	    105.23673048	     86.42347395	     64.50974279	      9.01440335	     59.78812418	    122.56896512	     77.53452517
